<svg width="176" height="37" viewBox="0 0 176 37" fill="none" xmlns="http://www.w3.org/2000/svg">
<ellipse cx="174.064" cy="18.3098" rx="1.93621" ry="2.03444" fill="#F93B00"/>
<path d="M13.8264 17.7681C13.1187 18.7242 12.3351 19.3971 11.4757 19.7866C10.6163 20.1584 9.74844 20.3444 8.87218 20.3444C7.49038 20.3444 6.24338 20.0965 5.1312 19.6007C4.03587 19.0872 3.10905 18.3878 2.35075 17.5025C1.59244 16.6172 1.01107 15.5814 0.606645 14.3951C0.202215 13.1911 0 11.8985 0 10.5174C0 9.10096 0.202215 7.7907 0.606645 6.58669C1.01107 5.36496 1.59244 4.30259 2.35075 3.39958C3.10905 2.49657 4.03587 1.78832 5.1312 1.27484C6.24338 0.761365 7.49038 0.504626 8.87218 0.504626C9.799 0.504626 10.6921 0.655128 11.5515 0.956131C12.4278 1.23943 13.2114 1.66438 13.9023 2.23097C14.61 2.79757 15.1914 3.49696 15.6464 4.32915C16.1014 5.16134 16.3794 6.11747 16.4805 7.19755H12.689C12.4531 6.13518 11.9981 5.3384 11.324 4.80722C10.65 4.27603 9.8327 4.01044 8.87218 4.01044C7.97906 4.01044 7.22076 4.19636 6.59726 4.56819C5.97376 4.92231 5.46823 5.40923 5.08065 6.02894C4.69307 6.63095 4.4066 7.32149 4.22124 8.10056C4.05272 8.87963 3.96847 9.68526 3.96847 10.5174C3.96847 11.3142 4.05272 12.0933 4.22124 12.8547C4.4066 13.5983 4.69307 14.2712 5.08065 14.8732C5.46823 15.4752 5.97376 15.9621 6.59726 16.3339C7.22076 16.688 7.97906 16.8651 8.87218 16.8651C10.1866 16.8651 11.1976 16.5198 11.9054 15.8293C12.63 15.121 13.0513 14.1029 13.1692 12.775H9.1755V9.66755H16.7586V19.9194H14.2309L13.8264 17.7681Z" fill="black"/>
<path d="M19.9634 0.956131H33.4612V4.46195H23.9319V8.52551H32.6776V11.7657H23.9319V16.4136H33.6634V19.9194H19.9634V0.956131Z" fill="black"/>
<path d="M53.5421 19.9194H49.5989L46.5404 7.01163H46.4899L43.4819 19.9194H39.4629L34.6856 0.956131H38.654L41.5103 13.8639H41.5609L44.6952 0.956131H48.4109L51.4947 14.0233H51.5452L54.5026 0.956131H58.3953L53.5421 19.9194Z" fill="black"/>
<path d="M95.399 0.956131H99.3422L106.875 13.678H106.925V0.956131H110.641V19.9194H106.672L99.1653 7.22411H99.1147V19.9194H95.399V0.956131Z" fill="black"/>
<path d="M125.519 8.63175H129.538C130.246 8.63175 130.827 8.45468 131.282 8.10056C131.737 7.74644 131.965 7.17099 131.965 6.37421C131.965 5.93156 131.889 5.56858 131.737 5.28528C131.586 5.00199 131.383 4.78066 131.131 4.6213C130.878 4.46195 130.583 4.35571 130.246 4.30259C129.926 4.23177 129.589 4.19636 129.235 4.19636H125.519V8.63175ZM121.551 0.956131H130.044C130.903 0.956131 131.687 1.03581 132.395 1.19516C133.102 1.35452 133.709 1.62011 134.214 1.99194C134.72 2.34606 135.108 2.82413 135.377 3.42614C135.664 4.02815 135.807 4.77181 135.807 5.65711C135.807 6.61324 135.596 7.41002 135.175 8.04744C134.771 8.68486 134.164 9.20719 133.355 9.61444C134.467 9.95085 135.293 10.544 135.832 11.3939C136.388 12.2261 136.666 13.2353 136.666 14.4217C136.666 15.3778 136.489 16.21 136.136 16.9182C135.782 17.6088 135.301 18.1754 134.695 18.618C134.105 19.0607 133.422 19.3882 132.647 19.6007C131.889 19.8132 131.105 19.9194 130.297 19.9194H121.551V0.956131ZM125.519 16.6792H129.766C130.153 16.6792 130.524 16.6438 130.878 16.573C131.232 16.4844 131.544 16.3516 131.813 16.1746C132.083 15.9798 132.293 15.7231 132.445 15.4043C132.614 15.0856 132.698 14.6784 132.698 14.1826C132.698 13.2088 132.437 12.5182 131.914 12.111C131.392 11.6861 130.701 11.4736 129.842 11.4736H125.519V16.6792Z" fill="black"/>
<path d="M143.898 12.5891H148.574L146.299 5.63055H146.249L143.898 12.5891ZM144.277 0.956131H148.347L155.096 19.9194H150.976L149.611 15.6965H142.862L141.446 19.9194H137.452L144.277 0.956131Z" fill="black"/>
<path d="M159.357 13.6249C159.357 14.2623 159.466 14.8023 159.685 15.245C159.904 15.6876 160.191 16.0506 160.545 16.3339C160.915 16.5995 161.345 16.8031 161.834 16.9448C162.322 17.0687 162.828 17.1307 163.35 17.1307C163.704 17.1307 164.083 17.1041 164.488 17.051C164.892 16.9802 165.271 16.8562 165.625 16.6792C165.979 16.5021 166.274 16.2631 166.51 15.9621C166.746 15.6434 166.864 15.245 166.864 14.7669C166.864 14.2534 166.704 13.8374 166.384 13.5186C166.08 13.1999 165.676 12.9343 165.17 12.7219C164.665 12.5094 164.092 12.3235 163.452 12.1641C162.811 12.0048 162.162 11.8277 161.505 11.6329C160.831 11.4559 160.174 11.2434 159.534 10.9955C158.893 10.7299 158.32 10.3935 157.815 9.98627C157.309 9.57902 156.896 9.0744 156.576 8.47239C156.273 7.85267 156.121 7.10902 156.121 6.24142C156.121 5.26758 156.315 4.42654 156.703 3.71829C157.107 2.99234 157.629 2.39033 158.27 1.91226C158.91 1.4342 159.635 1.08007 160.444 0.849894C161.252 0.619715 162.061 0.504626 162.87 0.504626C163.814 0.504626 164.715 0.619715 165.575 0.849894C166.451 1.06237 167.226 1.41649 167.9 1.91226C168.574 2.40804 169.105 3.04546 169.493 3.82453C169.897 4.58589 170.099 5.51546 170.099 6.61324H166.257C166.224 6.04665 166.106 5.57743 165.903 5.20561C165.718 4.83378 165.465 4.54163 165.145 4.32915C164.825 4.11668 164.454 3.96618 164.033 3.87765C163.628 3.78911 163.182 3.74485 162.693 3.74485C162.373 3.74485 162.053 3.78026 161.733 3.85109C161.413 3.92191 161.118 4.04585 160.848 4.22292C160.595 4.39998 160.385 4.6213 160.216 4.8869C160.048 5.15249 159.963 5.48891 159.963 5.89615C159.963 6.26797 160.031 6.56898 160.166 6.79916C160.3 7.02934 160.562 7.24181 160.949 7.43658C161.354 7.63135 161.901 7.82612 162.592 8.02088C163.3 8.21565 164.218 8.46354 165.347 8.76454C165.684 8.83537 166.148 8.96816 166.738 9.16293C167.344 9.33999 167.942 9.63214 168.532 10.0394C169.122 10.4466 169.627 10.9955 170.049 11.6861C170.487 12.3589 170.706 13.2265 170.706 14.2889C170.706 15.1565 170.546 15.9621 170.226 16.7057C169.906 17.4494 169.425 18.0957 168.785 18.6446C168.161 19.1758 167.378 19.5918 166.434 19.8929C165.507 20.1939 164.429 20.3444 163.199 20.3444C162.205 20.3444 161.236 20.2116 160.292 19.946C159.365 19.6981 158.539 19.2997 157.815 18.7508C157.107 18.2019 156.543 17.5025 156.121 16.6526C155.7 15.8027 155.498 14.7935 155.515 13.6249H159.357Z" fill="black"/>
<path d="M66.4449 0.130192C64.7738 0.377557 63.4892 1.05456 62.2545 2.33044C58.775 5.9628 58.4508 12.9411 61.5686 16.899C63.1151 18.8779 65.2601 19.9064 67.8292 19.9194C70.997 19.9194 73.4912 18.2009 75.574 14.5815C75.9107 14.0087 76.21 13.553 76.2474 13.54C76.2973 13.54 76.3971 13.7223 76.4969 13.9566C77.1578 15.6231 79.5523 18.3831 80.9865 19.0992C82.2337 19.7502 83.2938 19.9585 84.8402 19.8804C86.4365 19.8022 87.4342 19.4768 88.619 18.6565C89.704 17.9014 90.5646 16.7948 91.3253 15.1674C92.1609 13.3838 92.3355 12.6286 92.4103 10.4675C92.5101 7.62926 92.0487 5.72846 90.7142 3.60632C89.2301 1.23683 87.0601 0.0130192 84.3663 0C80.999 0 78.5796 1.64042 76.3971 5.44204L75.7735 6.50961L75.1749 5.44204C73.5785 2.57781 71.6455 0.807192 69.5004 0.286423C68.6524 0.0781153 67.2805 0.0130192 66.4449 0.130192ZM69.463 4.54371C70.124 4.86919 70.5605 5.23373 71.4958 6.22319C72.8178 7.61625 73.9901 9.25667 73.9901 9.71234C73.9901 10.4284 72.2691 13.2275 71.0219 14.5295C70.6353 14.933 69.9993 15.4148 69.5254 15.6491C68.4528 16.1959 67.2805 16.222 66.208 15.7142C64.1751 14.7378 63.1774 12.6937 63.3021 9.76442C63.4767 5.37694 66.2953 3.00744 69.463 4.54371ZM85.6384 4.42654C87.0352 4.97334 87.9206 6.00186 88.4694 7.68134C88.6814 8.35834 88.7313 8.82703 88.7313 9.95971C88.7313 11.6652 88.4694 12.6937 87.7211 13.8915C86.8356 15.3236 85.7506 15.9355 84.0919 15.9355C83.1192 15.9485 82.9695 15.9095 82.2462 15.5059C81.3108 14.9721 80.3256 13.9045 79.3403 12.3422C78.4549 10.9361 78.168 10.1941 78.2803 9.58215C78.3676 9.10044 79.4775 7.25171 80.3131 6.21017C80.9741 5.37694 81.9843 4.59579 82.6951 4.37446C83.5681 4.08804 84.8277 4.11407 85.6384 4.42654Z" fill="black"/>
<path d="M12.87 32.75C12.87 32.9833 12.8467 33.24 12.8 33.52C12.7533 33.8 12.6467 34.0633 12.48 34.31C12.3133 34.55 12.0733 34.7533 11.76 34.92C11.4467 35.08 11.0233 35.16 10.49 35.16C10.19 35.16 9.9 35.1167 9.62 35.03C9.34 34.95 9.09 34.8233 8.87 34.65C8.65 34.47 8.47333 34.2433 8.34 33.97C8.20667 33.69 8.14 33.3533 8.14 32.96V32.34H9.56V32.66C9.56 32.8333 9.57333 32.9933 9.6 33.14C9.62667 33.2867 9.67333 33.4133 9.74 33.52C9.80667 33.62 9.89667 33.7 10.01 33.76C10.13 33.82 10.2833 33.85 10.47 33.85C10.6767 33.85 10.8367 33.8133 10.95 33.74C11.0633 33.6667 11.1433 33.5733 11.19 33.46C11.2433 33.34 11.2733 33.2133 11.28 33.08C11.2933 32.94 11.3 32.8067 11.3 32.68V27.86H12.87V32.75ZM15.5066 31.46C15.5066 31.76 15.54 32.0533 15.6066 32.34C15.68 32.62 15.7933 32.8733 15.9466 33.1C16.1 33.3267 16.3 33.51 16.5466 33.65C16.7933 33.7833 17.0933 33.85 17.4466 33.85C17.8 33.85 18.1 33.7833 18.3466 33.65C18.5933 33.51 18.7933 33.3267 18.9466 33.1C19.1 32.8733 19.21 32.62 19.2766 32.34C19.35 32.0533 19.3866 31.76 19.3866 31.46C19.3866 31.1467 19.35 30.8433 19.2766 30.55C19.21 30.2567 19.1 29.9967 18.9466 29.77C18.7933 29.5367 18.5933 29.3533 18.3466 29.22C18.1 29.08 17.8 29.01 17.4466 29.01C17.0933 29.01 16.7933 29.08 16.5466 29.22C16.3 29.3533 16.1 29.5367 15.9466 29.77C15.7933 29.9967 15.68 30.2567 15.6066 30.55C15.54 30.8433 15.5066 31.1467 15.5066 31.46ZM13.9366 31.46C13.9366 30.9267 14.0166 30.4333 14.1766 29.98C14.3366 29.52 14.5666 29.12 14.8666 28.78C15.1666 28.44 15.5333 28.1733 15.9666 27.98C16.4066 27.7867 16.9 27.69 17.4466 27.69C18 27.69 18.4933 27.7867 18.9266 27.98C19.36 28.1733 19.7266 28.44 20.0266 28.78C20.3266 29.12 20.5566 29.52 20.7166 29.98C20.8766 30.4333 20.9566 30.9267 20.9566 31.46C20.9566 31.98 20.8766 32.4667 20.7166 32.92C20.5566 33.3667 20.3266 33.7567 20.0266 34.09C19.7266 34.4233 19.36 34.6867 18.9266 34.88C18.4933 35.0667 18 35.16 17.4466 35.16C16.9 35.16 16.4066 35.0667 15.9666 34.88C15.5333 34.6867 15.1666 34.4233 14.8666 34.09C14.5666 33.7567 14.3366 33.3667 14.1766 32.92C14.0166 32.4667 13.9366 31.98 13.9366 31.46ZM28.0898 32.3C28.0898 33.2667 27.8198 33.9867 27.2798 34.46C26.7398 34.9267 25.9932 35.16 25.0398 35.16C24.0732 35.16 23.3232 34.9267 22.7898 34.46C22.2632 33.9933 21.9998 33.2733 21.9998 32.3V27.86H23.5698V32.3C23.5698 32.4933 23.5865 32.6833 23.6198 32.87C23.6532 33.0567 23.7232 33.2233 23.8298 33.37C23.9365 33.51 24.0832 33.6267 24.2698 33.72C24.4632 33.8067 24.7198 33.85 25.0398 33.85C25.5998 33.85 25.9865 33.7267 26.1998 33.48C26.4132 33.2267 26.5198 32.8333 26.5198 32.3V27.86H28.0898V32.3ZM36.242 35H34.682L33.472 30.14H33.452L32.262 35H30.672L28.782 27.86H30.352L31.482 32.72H31.502L32.742 27.86H34.212L35.432 32.78H35.452L36.622 27.86H38.162L36.242 35ZM41.6685 27.86H43.8785L45.5485 32.77H45.5685L47.1485 27.86H49.3585V35H47.8885V29.94H47.8685L46.1185 35H44.9085L43.1585 29.99H43.1385V35H41.6685V27.86ZM50.7408 27.86H56.0808V29.18H52.3108V30.71H55.7708V31.93H52.3108V33.68H56.1608V35H50.7408V27.86ZM58.7952 31.09H60.5152C60.8752 31.09 61.1452 31.01 61.3252 30.85C61.5052 30.69 61.5952 30.43 61.5952 30.07C61.5952 29.7233 61.5052 29.4733 61.3252 29.32C61.1452 29.16 60.8752 29.08 60.5152 29.08H58.7952V31.09ZM57.2252 27.86H61.0752C61.3952 27.86 61.6818 27.9133 61.9352 28.02C62.1952 28.12 62.4152 28.26 62.5952 28.44C62.7818 28.62 62.9218 28.83 63.0152 29.07C63.1152 29.3033 63.1652 29.5567 63.1652 29.83C63.1652 30.25 63.0752 30.6133 62.8952 30.92C62.7218 31.2267 62.4352 31.46 62.0352 31.62V31.64C62.2285 31.6933 62.3885 31.7767 62.5152 31.89C62.6418 31.9967 62.7452 32.1267 62.8252 32.28C62.9052 32.4267 62.9618 32.59 62.9952 32.77C63.0352 32.95 63.0618 33.13 63.0752 33.31C63.0818 33.4233 63.0885 33.5567 63.0952 33.71C63.1018 33.8633 63.1118 34.02 63.1252 34.18C63.1452 34.34 63.1718 34.4933 63.2052 34.64C63.2452 34.78 63.3018 34.9 63.3752 35H61.8052C61.7185 34.7733 61.6652 34.5033 61.6452 34.19C61.6252 33.8767 61.5952 33.5767 61.5552 33.29C61.5018 32.9167 61.3885 32.6433 61.2152 32.47C61.0418 32.2967 60.7585 32.21 60.3652 32.21H58.7952V35H57.2252V27.86ZM64.442 27.86H66.012V30.82L68.802 27.86H70.762L67.972 30.68L71.032 35H69.062L66.912 31.79L66.012 32.7V35H64.442V27.86ZM71.5788 33.46H73.1488V35C73.1488 35.2267 73.1054 35.4333 73.0188 35.62C72.9388 35.8133 72.8288 35.98 72.6888 36.12C72.5488 36.26 72.3821 36.3733 72.1888 36.46C72.0021 36.5533 71.8021 36.6167 71.5888 36.65V35.93C71.6888 35.91 71.7821 35.87 71.8688 35.81C71.9621 35.75 72.0421 35.6767 72.1088 35.59C72.1754 35.51 72.2254 35.4167 72.2588 35.31C72.2921 35.21 72.3054 35.1067 72.2988 35H71.5788V33.46ZM78.7952 33.68H80.1952C80.4218 33.68 80.6418 33.6433 80.8552 33.57C81.0685 33.4967 81.2585 33.3767 81.4252 33.21C81.5918 33.0367 81.7252 32.8133 81.8252 32.54C81.9252 32.2667 81.9752 31.9333 81.9752 31.54C81.9752 31.18 81.9385 30.8567 81.8652 30.57C81.7985 30.2767 81.6852 30.0267 81.5252 29.82C81.3652 29.6133 81.1518 29.4567 80.8852 29.35C80.6252 29.2367 80.3018 29.18 79.9152 29.18H78.7952V33.68ZM77.2252 27.86H80.3052C80.7652 27.86 81.1918 27.9333 81.5852 28.08C81.9852 28.2267 82.3285 28.4467 82.6152 28.74C82.9085 29.0333 83.1352 29.4 83.2952 29.84C83.4618 30.28 83.5452 30.7967 83.5452 31.39C83.5452 31.91 83.4785 32.39 83.3452 32.83C83.2118 33.27 83.0085 33.65 82.7352 33.97C82.4685 34.29 82.1318 34.5433 81.7252 34.73C81.3252 34.91 80.8518 35 80.3052 35H77.2252V27.86ZM84.6373 27.86H86.2073V35H84.6373V27.86ZM92.7465 34.19C92.4665 34.55 92.1565 34.8033 91.8165 34.95C91.4765 35.09 91.1332 35.16 90.7865 35.16C90.2398 35.16 89.7465 35.0667 89.3065 34.88C88.8732 34.6867 88.5065 34.4233 88.2065 34.09C87.9065 33.7567 87.6765 33.3667 87.5165 32.92C87.3565 32.4667 87.2765 31.98 87.2765 31.46C87.2765 30.9267 87.3565 30.4333 87.5165 29.98C87.6765 29.52 87.9065 29.12 88.2065 28.78C88.5065 28.44 88.8732 28.1733 89.3065 27.98C89.7465 27.7867 90.2398 27.69 90.7865 27.69C91.1532 27.69 91.5065 27.7467 91.8465 27.86C92.1932 27.9667 92.5032 28.1267 92.7765 28.34C93.0565 28.5533 93.2865 28.8167 93.4665 29.13C93.6465 29.4433 93.7565 29.8033 93.7965 30.21H92.2965C92.2032 29.81 92.0232 29.51 91.7565 29.31C91.4898 29.11 91.1665 29.01 90.7865 29.01C90.4332 29.01 90.1332 29.08 89.8865 29.22C89.6398 29.3533 89.4398 29.5367 89.2865 29.77C89.1332 29.9967 89.0198 30.2567 88.9465 30.55C88.8798 30.8433 88.8465 31.1467 88.8465 31.46C88.8465 31.76 88.8798 32.0533 88.9465 32.34C89.0198 32.62 89.1332 32.8733 89.2865 33.1C89.4398 33.3267 89.6398 33.51 89.8865 33.65C90.1332 33.7833 90.4332 33.85 90.7865 33.85C91.3065 33.85 91.7065 33.72 91.9865 33.46C92.2732 33.1933 92.4398 32.81 92.4865 32.31H90.9065V31.14H93.9065V35H92.9065L92.7465 34.19ZM95.1744 27.86H96.7444V35H95.1744V27.86ZM99.7036 29.18H97.5636V27.86H103.414V29.18H101.274V35H99.7036V29.18ZM105.119 32.24H106.969L106.069 29.62H106.049L105.119 32.24ZM105.269 27.86H106.879L109.549 35H107.919L107.379 33.41H104.709L104.149 35H102.569L105.269 27.86ZM111.965 32.24H113.815L112.915 29.62H112.895L111.965 32.24ZM112.115 27.86H113.725L116.395 35H114.765L114.225 33.41H111.555L110.995 35H109.415L112.115 27.86ZM117.01 27.86H118.58V33.68H122.06V35H117.01V27.86ZM126.791 32.63C126.791 32.87 126.835 33.0733 126.921 33.24C127.008 33.4067 127.121 33.5433 127.261 33.65C127.408 33.75 127.578 33.8267 127.771 33.88C127.965 33.9267 128.165 33.95 128.371 33.95C128.511 33.95 128.661 33.94 128.821 33.92C128.981 33.8933 129.131 33.8467 129.271 33.78C129.411 33.7133 129.528 33.6233 129.621 33.51C129.715 33.39 129.761 33.24 129.761 33.06C129.761 32.8667 129.698 32.71 129.571 32.59C129.451 32.47 129.291 32.37 129.091 32.29C128.891 32.21 128.665 32.14 128.411 32.08C128.158 32.02 127.901 31.9533 127.641 31.88C127.375 31.8133 127.115 31.7333 126.861 31.64C126.608 31.54 126.381 31.4133 126.181 31.26C125.981 31.1067 125.818 30.9167 125.691 30.69C125.571 30.4567 125.511 30.1767 125.511 29.85C125.511 29.4833 125.588 29.1667 125.741 28.9C125.901 28.6267 126.108 28.4 126.361 28.22C126.615 28.04 126.901 27.9067 127.221 27.82C127.541 27.7333 127.861 27.69 128.181 27.69C128.555 27.69 128.911 27.7333 129.251 27.82C129.598 27.9 129.905 28.0333 130.171 28.22C130.438 28.4067 130.648 28.6467 130.801 28.94C130.961 29.2267 131.041 29.5767 131.041 29.99H129.521C129.508 29.7767 129.461 29.6 129.381 29.46C129.308 29.32 129.208 29.21 129.081 29.13C128.955 29.05 128.808 28.9933 128.641 28.96C128.481 28.9267 128.305 28.91 128.111 28.91C127.985 28.91 127.858 28.9233 127.731 28.95C127.605 28.9767 127.488 29.0233 127.381 29.09C127.281 29.1567 127.198 29.24 127.131 29.34C127.065 29.44 127.031 29.5667 127.031 29.72C127.031 29.86 127.058 29.9733 127.111 30.06C127.165 30.1467 127.268 30.2267 127.421 30.3C127.581 30.3733 127.798 30.4467 128.071 30.52C128.351 30.5933 128.715 30.6867 129.161 30.8C129.295 30.8267 129.478 30.8767 129.711 30.95C129.951 31.0167 130.188 31.1267 130.421 31.28C130.655 31.4333 130.855 31.64 131.021 31.9C131.195 32.1533 131.281 32.48 131.281 32.88C131.281 33.2067 131.218 33.51 131.091 33.79C130.965 34.07 130.775 34.3133 130.521 34.52C130.275 34.72 129.965 34.8767 129.591 34.99C129.225 35.1033 128.798 35.16 128.311 35.16C127.918 35.16 127.535 35.11 127.161 35.01C126.795 34.9167 126.468 34.7667 126.181 34.56C125.901 34.3533 125.678 34.09 125.511 33.77C125.345 33.45 125.265 33.07 125.271 32.63H126.791ZM133.795 29.18H131.655V27.86H137.505V29.18H135.365V35H133.795V29.18ZM138.329 27.86H143.669V29.18H139.899V30.71H143.359V31.93H139.899V33.68H143.749V35H138.329V27.86ZM146.383 31.09H148.103C148.463 31.09 148.733 31.01 148.913 30.85C149.093 30.69 149.183 30.43 149.183 30.07C149.183 29.7233 149.093 29.4733 148.913 29.32C148.733 29.16 148.463 29.08 148.103 29.08H146.383V31.09ZM144.813 27.86H148.663C148.983 27.86 149.27 27.9133 149.523 28.02C149.783 28.12 150.003 28.26 150.183 28.44C150.37 28.62 150.51 28.83 150.603 29.07C150.703 29.3033 150.753 29.5567 150.753 29.83C150.753 30.25 150.663 30.6133 150.483 30.92C150.31 31.2267 150.023 31.46 149.623 31.62V31.64C149.816 31.6933 149.976 31.7767 150.103 31.89C150.23 31.9967 150.333 32.1267 150.413 32.28C150.493 32.4267 150.55 32.59 150.583 32.77C150.623 32.95 150.65 33.13 150.663 33.31C150.67 33.4233 150.676 33.5567 150.683 33.71C150.69 33.8633 150.7 34.02 150.713 34.18C150.733 34.34 150.76 34.4933 150.793 34.64C150.833 34.78 150.89 34.9 150.963 35H149.393C149.306 34.7733 149.253 34.5033 149.233 34.19C149.213 33.8767 149.183 33.5767 149.143 33.29C149.09 32.9167 148.976 32.6433 148.803 32.47C148.63 32.2967 148.346 32.21 147.953 32.21H146.383V35H144.813V27.86ZM152.03 27.86H153.6V30.82L156.39 27.86H158.35L155.56 30.68L158.62 35H156.65L154.5 31.79L153.6 32.7V35H152.03V27.86ZM159.157 33.46H160.727V35H159.157V33.46Z" fill="black"/>
</svg>
